<?xml version="1.0" encoding="UTF-8" standalone="no"?>
<!-- Uploaded to: SVG Repo, www.svgrepo.com, Generator: SVG Repo Mixer Tools -->

<svg
   fill="#000000"
   height="800px"
   width="800px"
   version="1.1"
   id="Layer_1"
   viewBox="0 0 512 512"
   xml:space="preserve"
   sodipodi:docname="sleigh-sledge-svgrepo-com.svg"
   inkscape:version="1.3 (0e150ed, 2023-07-21)"
   xmlns:inkscape="http://www.inkscape.org/namespaces/inkscape"
   xmlns:sodipodi="http://sodipodi.sourceforge.net/DTD/sodipodi-0.dtd"
   xmlns="http://www.w3.org/2000/svg"
   xmlns:svg="http://www.w3.org/2000/svg"><defs
   id="defs202"><linearGradient
   id="linearGradient915"
   inkscape:swatch="solid"><stop
     style="stop-color:#000000;stop-opacity:1;"
     offset="0"
     id="stop913" /></linearGradient>&#10;		&#10;	</defs><sodipodi:namedview
   id="namedview200"
   pagecolor="#ffffff"
   bordercolor="#000000"
   borderopacity="0.25"
   inkscape:showpageshadow="2"
   inkscape:pageopacity="0.0"
   inkscape:pagecheckerboard="0"
   inkscape:deskcolor="#d1d1d1"
   showgrid="false"
   inkscape:zoom="1.4220682"
   inkscape:cx="235.57239"
   inkscape:cy="119.5442"
   inkscape:window-width="1656"
   inkscape:window-height="867"
   inkscape:window-x="0"
   inkscape:window-y="25"
   inkscape:window-maximized="0"
   inkscape:current-layer="g197" />&#10;<g
   id="g197"
   transform="matrix(0.56692872,0,0,0.2714356,-1.6792528e-4,16.991689)">&#10;	&#10;<path
   id="rect1"
   style="fill:none;stroke:#ff0000;stroke-width:0.462468"
   d="m 13.032963,-62.368104 c -7.0911978,0 -12.8014328,11.92657 -12.8014328,26.73746 v 77.00722 496.642004 26.73286 H 13.032963 498.97881 511.77804 V 538.01858 41.376576 -35.630644 c 0,-14.81089 -5.70803,-26.73746 -12.79923,-26.73746 z"
   sodipodi:nodetypes="ssccccccccsss" /><path
   d="m 472.65196,421.71703 c -3.47989,-37.01149 -13.71695,-48.05909 -19.51254,-51.35321 -8.08647,-4.61156 -17.16358,-0.24119 -23.69638,11.33059 -7.58632,13.44664 -6.5963,33.42472 -1.25732,44.9697 4.18385,9.04196 12.56666,15.4855 22.43965,3.82903 2.28606,-2.70133 2.90232,-8.1651 1.37828,-12.2171 -1.5192,-4.052 -4.60659,-5.1454 -6.89264,-2.44299 -2.67916,3.16656 -6.46023,5.68674 -9.23676,-0.3441 -2.48019,-5.35979 -2.95617,-15.03849 0.59691,-21.33625 3.82461,-6.78013 9.18838,-9.53292 13.63471,-7.01167 6.28061,3.57069 10.80493,16.82223 12.74143,37.40918 3.85909,41.02918 -16.60536,49.15355 -20.40094,51.35534 H 328.35525 L 309.28271,371.48758 h 57.23912 c 10.74144,0 20.53642,-14.65366 22.30357,-33.43543 l 5.02873,-58.48882 c 1.04324,-11.12371 7.23736,-29.04327 13.25126,-32.60539 l 1.57303,-0.92296 c 5.15935,-3.04543 9.08618,-9.36462 11.0523,-17.78806 1.97036,-8.43953 1.71334,-17.85024 -0.72816,-26.50523 l -1.56818,-5.54953 c -4.83459,-17.15561 -16.60683,-25.17246 -27.02628,-17.93814 -0.64778,0.44975 -95.85368,64.15905 -150.38628,51.19254 -27.23533,-6.4759 -79.37628,-50.00411 -91.36418,-94.82238 C 140.94742,105.79853 130.41933,51.812271 117.71176,29.296868 95.899268,-9.3557821 58.465982,-14.604087 44.239198,8.4183494 41.287887,13.192848 32.67707,30.950899 45.763237,58.791785 c 6.358632,13.516319 11.207735,22.111287 14.751124,28.391888 9.804641,17.387167 10.111864,18.428037 13.664933,81.371277 4.911991,87.04083 8.287853,167.97395 8.287853,168.6793 v 0.0171 c 1.242816,19.26308 10.902931,34.23726 21.823993,34.23726 H 171.0936 L 147.71322,475.90662 H 47.780477 c -2.747505,0 -4.970671,3.94052 -4.970671,8.81042 0,4.86991 2.223166,8.81046 4.970671,8.81046 H 442.89752 c 0.27216,0 0.54854,0.015 0.81525,-0.0622 0.3544,-0.1029 8.70273,-2.63061 16.39611,-12.55051 7.3686,-9.49968 15.52825,-27.45926 12.54308,-59.19778 z m -313.96747,54.18852 23.38037,-104.41797 h 116.51086 l 19.07255,104.41797 z"
   id="path1"
   style="fill:none;fill-opacity:1;stroke:#0000ff;stroke-width:0.372363;stroke-dasharray:none;stroke-opacity:1"
   sodipodi:nodetypes="ccccccccccccccscccccccssscccccscsccsssscccccccc" /><text
   xml:space="preserve"
   style="font-style:normal;font-variant:normal;font-weight:normal;font-stretch:normal;font-size:24.9814px;font-family:'Source Sans Pro';-inkscape-font-specification:'Source Sans Pro';text-align:end;letter-spacing:0px;text-anchor:end;fill:none;stroke:#0000ff;stroke-width:0.269771;stroke-dasharray:none;stroke-opacity:1"
   x="715.08429"
   y="0.19560447"
   id="text2"
   transform="scale(0.69194116,1.4452096)"><tspan
     sodipodi:role="line"
     id="tspan2"
     style="font-style:normal;font-variant:normal;font-weight:normal;font-stretch:normal;font-family:'Source Sans Pro';-inkscape-font-specification:'Source Sans Pro';stroke:#0000ff;stroke-width:0.269771;stroke-dasharray:none;stroke-opacity:1"
     x="715.08429"
     y="0.19560447">CoderDojo'23</tspan></text></g>&#10;</svg>
