<?xml version="1.0" encoding="UTF-8" standalone="no"?>
<!-- Uploaded to: SVG Repo, www.svgrepo.com, Generator: SVG Repo Mixer Tools -->

<svg
   fill="#000000"
   height="800px"
   width="800px"
   version="1.1"
   id="Layer_1"
   viewBox="0 0 512 512"
   xml:space="preserve"
   sodipodi:docname="winter.svg"
   inkscape:version="1.3.2 (091e20e, 2023-11-25)"
   xmlns:inkscape="http://www.inkscape.org/namespaces/inkscape"
   xmlns:sodipodi="http://sodipodi.sourceforge.net/DTD/sodipodi-0.dtd"
   xmlns="http://www.w3.org/2000/svg"
   xmlns:svg="http://www.w3.org/2000/svg"><defs
   id="defs202"><linearGradient
   id="linearGradient915"
   inkscape:swatch="solid"><stop
     style="stop-color:#000000;stop-opacity:1;"
     offset="0"
     id="stop913" /></linearGradient>
		
	
	
</defs><sodipodi:namedview
   id="namedview200"
   pagecolor="#ffffff"
   bordercolor="#000000"
   borderopacity="0.25"
   inkscape:showpageshadow="2"
   inkscape:pageopacity="0.0"
   inkscape:pagecheckerboard="0"
   inkscape:deskcolor="#d1d1d1"
   showgrid="false"
   inkscape:zoom="0.91297949"
   inkscape:cx="192.22776"
   inkscape:cy="165.39254"
   inkscape:window-width="1656"
   inkscape:window-height="867"
   inkscape:window-x="0"
   inkscape:window-y="25"
   inkscape:window-maximized="0"
   inkscape:current-layer="Layer_1" />
<path
   id="rect1"
   style="fill:none;stroke:#ff0000;stroke-width:0.181418"
   d="m 7.3885931,0.06276527 c -4.0202037,0 -7.25749991,3.23729573 -7.25749991,7.25749853 V 28.222765 163.02909 170.28533 H 7.3885931 282.88525 290.1415 V 163.02909 28.222765 7.3202638 c 0,-4.0202028 -3.23604,-7.25749853 -7.25625,-7.25749853 z"
   sodipodi:nodetypes="ssccccccccsss" /><text
   xml:space="preserve"
   style="font-style:normal;font-variant:normal;font-weight:normal;font-stretch:normal;font-size:9.79974px;font-family:'Source Sans Pro';-inkscape-font-specification:'Source Sans Pro';text-align:end;letter-spacing:0px;text-anchor:end;fill:none;stroke:#0000ff;stroke-width:0.105826;stroke-dasharray:none;stroke-opacity:1"
   x="280.51404"
   y="17.06842"
   id="text2"><tspan
     sodipodi:role="line"
     id="tspan2"
     style="font-style:normal;font-variant:normal;font-weight:normal;font-stretch:normal;font-family:'Source Sans Pro';-inkscape-font-specification:'Source Sans Pro';stroke:#0000ff;stroke-width:0.105826;stroke-dasharray:none;stroke-opacity:1"
     x="280.51404"
     y="17.06842">CoderDojo Potsdam</tspan></text><path
   id="path10"
   style="fill:none;stroke:#0000ff;stroke-width:0.229214;stroke-dasharray:none;stroke-opacity:1"
   d="m 200.10125,132.89 c 0,0 -33.77482,15.08116 -55.7325,14.45375 -15.90254,-0.45439 -36.10354,-13.96376 -54.289999,-20.3725 v -7.6825 H 105.54 l -9.358749,-13.58 -0.352499,-0.51125 h 6.892498 l -7.948749,-11.87125 -1.741253,-2.6 H 97.665 l -5.42125,-9.347499 -5.421251,-9.347501 -5.42125,9.347501 -5.419997,9.347499 h 4.633746 l -1.741247,2.6 -7.950002,11.87125 h 6.892504 l -0.352505,0.51125 -9.358746,13.58 h 15.462499 v 5.67 C 78.994365,123.81947 74.609092,123.32584 70.523752,123.835 48.809777,126.54121 18.5625,154.3675 18.5625,154.3675"
   sodipodi:nodetypes="cscccccccccccccccccccccsc" /><path
   id="path11"
   style="fill:none;stroke:#0000ff;stroke-width:0.220886;stroke-dasharray:none;stroke-opacity:1"
   d="m 267.5025,103.7075 c 0,0 -18.78593,-11.545934 -36.37875,-11.053751 -2.1556,0.06031 -4.54419,0.411971 -7.0975,0.982502 v -5.21 H 239.4875 L 230.12875,74.846249 229.77625,74.335 h 6.8925 L 228.72,62.463751 226.97875,59.86375 h 4.63375 l -5.42125,-9.347501 -5.42125,-9.347499 -5.42125,9.347499 -5.42,9.347501 h 4.63375 l -1.74125,2.600001 -7.95,11.871249 h 6.8925 l -0.3525,0.511249 -9.35875,13.580002 h 15.4625 v 6.917498 h 0.3425 c -17.72285,5.585241 -40.24194,18.176871 -50.91,20.751251 -11.70829,2.82541 -14.98464,2.23702 -15.67875,2.01625"
   sodipodi:nodetypes="csccccccccccccccccccccccsc" /><path
   style="fill:none;stroke:#0000ff;stroke-width:0.144;stroke-dasharray:none;stroke-opacity:1"
   d="M 43.845363,66.994085 H 54.763066"
   id="path36" /><path
   style="fill:none;stroke:#0000ff;stroke-width:0.144;stroke-dasharray:none;stroke-opacity:1"
   d="M 52.033641,71.721589 46.574789,62.266581"
   id="path37" /><path
   style="fill:none;stroke:#0000ff;stroke-width:0.144;stroke-dasharray:none;stroke-opacity:1"
   d="m 46.574789,71.721589 5.458852,-9.455008"
   id="path38" /><path
   style="fill:none;stroke:#0000ff;stroke-width:0.144;stroke-dasharray:none;stroke-opacity:1"
   d="M 75.093121,35.302382 H 86.010824"
   id="path36-8" /><path
   style="fill:none;stroke:#0000ff;stroke-width:0.144;stroke-dasharray:none;stroke-opacity:1"
   d="M 83.281399,40.029886 77.822547,30.574878"
   id="path37-4" /><path
   style="fill:none;stroke:#0000ff;stroke-width:0.144;stroke-dasharray:none;stroke-opacity:1"
   d="m 77.822547,40.029886 5.458852,-9.455008"
   id="path38-9" /><path
   style="fill:none;stroke:#0000ff;stroke-width:0.144;stroke-dasharray:none;stroke-opacity:1"
   d="m 120.50243,66.994085 h 10.91771"
   id="path36-1" /><path
   style="fill:none;stroke:#0000ff;stroke-width:0.144;stroke-dasharray:none;stroke-opacity:1"
   d="m 128.69071,71.721589 -5.45885,-9.455008"
   id="path37-0" /><path
   style="fill:none;stroke:#0000ff;stroke-width:0.144;stroke-dasharray:none;stroke-opacity:1"
   d="m 123.23186,71.721589 5.45885,-9.455008"
   id="path38-2" /><path
   style="fill:none;stroke:#0000ff;stroke-width:0.144;stroke-dasharray:none;stroke-opacity:1"
   d="m 143.01489,34.022381 h 10.9177"
   id="path36-7" /><path
   style="fill:none;stroke:#0000ff;stroke-width:0.144;stroke-dasharray:none;stroke-opacity:1"
   d="m 151.20316,38.749885 -5.45885,-9.455008"
   id="path37-1" /><path
   style="fill:none;stroke:#0000ff;stroke-width:0.144;stroke-dasharray:none;stroke-opacity:1"
   d="m 145.74431,38.749885 5.45885,-9.455008"
   id="path38-8" /><path
   style="fill:none;stroke:#0000ff;stroke-width:0.144;stroke-dasharray:none;stroke-opacity:1"
   d="m 256.71072,45.623905 h 10.9177"
   id="path36-0" /><path
   style="fill:none;stroke:#0000ff;stroke-width:0.144;stroke-dasharray:none;stroke-opacity:1"
   d="m 264.89899,50.351409 -5.45885,-9.455008"
   id="path37-5" /><path
   style="fill:none;stroke:#0000ff;stroke-width:0.144;stroke-dasharray:none;stroke-opacity:1"
   d="m 259.44014,50.351409 5.45885,-9.455008"
   id="path38-7" /><path
   style="fill:none;stroke:#0000ff;stroke-width:0.144;stroke-dasharray:none;stroke-opacity:1"
   d="m 167.40141,84.378595 h 10.9177"
   id="path36-05" /><path
   style="fill:none;stroke:#0000ff;stroke-width:0.144;stroke-dasharray:none;stroke-opacity:1"
   d="m 175.58968,89.106099 -5.45885,-9.455008"
   id="path37-6" /><path
   style="fill:none;stroke:#0000ff;stroke-width:0.144;stroke-dasharray:none;stroke-opacity:1"
   d="m 170.13083,89.106099 5.45885,-9.455008"
   id="path38-78" /><path
   style="fill:none;stroke:#0000ff;stroke-width:0.144;stroke-dasharray:none;stroke-opacity:1"
   d="M 23.425447,20.651358 H 34.34315"
   id="path36-6" /><path
   style="fill:none;stroke:#0000ff;stroke-width:0.144;stroke-dasharray:none;stroke-opacity:1"
   d="M 31.613725,25.378862 26.154873,15.923854"
   id="path37-8" /><path
   style="fill:none;stroke:#0000ff;stroke-width:0.144;stroke-dasharray:none;stroke-opacity:1"
   d="m 26.154873,25.378862 5.458852,-9.455008"
   id="path38-6" />
</svg>
